<?xml version="1.0" encoding="UTF-8" ?><!DOCTYPE svg PUBLIC "-//W3C//DTD SVG 1.1//EN"
    "http://www.w3.org/Graphics/SVG/1.1/DTD/svg11.dtd">
<svg height="105px" version="1.1" viewBox="0 0 105 105" width="105px"
    xmlns="http://www.w3.org/2000/svg">
    <path d=" M 0.00 0.00 L 49.47 0.00 C 35.55 0.87 22.07 7.38 12.95 17.97 C 5.37 26.51 0.95 37.59 0.00 48.93 L 0.00 0.00 Z"
        fill="#ffffff" />
    <path d=" M 49.47 0.00 L 56.06 0.00 C 68.59 1.01 80.77 6.39 89.62 15.37 C 98.72 24.36 104.19 36.76 105.00 49.50 L 105.00 56.06 C 103.97 68.84 98.39 81.25 89.11 90.14 C 80.17 98.92 68.02 104.19 55.54 105.00 L 48.95 105.00 C 36.40 103.99 24.22 98.60 15.36 89.61 C 6.27 80.63 0.81 68.24 0.00 55.51 L 0.00 48.93 C 0.95 37.59 5.37 26.51 12.95 17.97 C 22.07 7.38 35.55 0.87 49.47 0.00 Z"
        fill="#243c82" />
    <path d=" M 56.06 0.00 L 105.00 0.00 L 105.00 49.50 C 104.19 36.76 98.72 24.36 89.62 15.37 C 80.77 6.39 68.59 1.01 56.06 0.00 Z"
        fill="#ffffff" />
    <path d=" M 22.78 19.46 C 30.38 12.70 40.27 8.61 50.43 8.10 C 50.44 19.69 50.42 31.27 50.45 42.85 C 49.42 43.26 48.39 43.67 47.36 44.09 C 39.18 35.86 30.94 27.71 22.78 19.46 Z"
        fill="#ffffff" />
    <path d=" M 54.56 8.11 C 64.82 8.62 74.82 12.75 82.42 19.66 C 74.25 27.86 66.05 36.04 57.86 44.22 C 56.76 43.76 55.66 43.29 54.55 42.83 C 54.58 31.26 54.56 19.68 54.56 8.11 Z"
        fill="#ffffff" />
    <path d=" M 8.11 50.44 C 8.62 40.10 12.82 30.01 19.84 22.39 C 28.03 30.55 36.19 38.72 44.35 46.90 C 43.83 48.09 43.30 49.27 42.78 50.46 C 31.22 50.41 19.67 50.45 8.11 50.44 Z"
        fill="#ffffff" />
    <path d=" M 60.78 47.14 C 68.96 38.95 77.14 30.75 85.34 22.58 C 92.25 30.18 96.38 40.18 96.89 50.44 C 85.31 50.44 73.74 50.42 62.16 50.44 C 61.70 49.34 61.24 48.24 60.78 47.14 Z"
        fill="#ffffff" />
    <path d=" M 8.11 54.56 C 19.69 54.56 31.26 54.58 42.84 54.55 C 43.30 55.66 43.76 56.76 44.22 57.86 C 36.04 66.05 27.86 74.25 19.66 82.42 C 12.75 74.82 8.62 64.82 8.11 54.56 Z"
        fill="#ffffff" />
    <path d=" M 62.15 54.55 C 73.73 54.58 85.30 54.57 96.88 54.56 C 96.41 64.73 92.30 74.62 85.54 82.22 C 77.29 74.06 69.14 65.81 60.91 57.64 C 61.32 56.61 61.74 55.58 62.15 54.55 Z"
        fill="#ffffff" />
    <path d=" M 0.00 55.51 C 0.81 68.24 6.27 80.63 15.36 89.61 C 24.22 98.60 36.40 103.99 48.95 105.00 L 0.00 105.00 L 0.00 55.51 Z"
        fill="#ffffff" />
    <path d=" M 89.11 90.14 C 98.39 81.25 103.97 68.84 105.00 56.06 L 105.00 105.00 L 55.54 105.00 C 68.02 104.19 80.17 98.92 89.11 90.14 Z"
        fill="#ffffff" />
    <path d=" M 22.58 85.34 C 30.75 77.14 38.95 68.96 47.14 60.77 C 48.24 61.24 49.34 61.70 50.45 62.17 C 50.42 73.74 50.44 85.32 50.43 96.90 C 40.18 96.37 30.17 92.26 22.58 85.34 Z"
        fill="#ffffff" />
    <path d=" M 54.54 62.22 C 55.73 61.70 56.91 61.17 58.10 60.64 C 66.28 68.81 74.45 76.97 82.61 85.16 C 74.99 92.18 64.90 96.37 54.56 96.89 C 54.55 85.33 54.59 73.78 54.54 62.22 Z"
        fill="#ffffff" />
</svg>
